<?xml version="1.0" encoding="UTF-8"?>
<svg width="214px" height="54px" viewBox="0 0 214 54" version="1.1" xmlns="http://www.w3.org/2000/svg" xmlns:xlink="http://www.w3.org/1999/xlink">
    <title>Untitled</title>
    <g id="Page-1" stroke="none" stroke-width="1" fill="none" fill-rule="evenodd">
        <rect id="Rectangle" stroke="#979797" fill="#D8D8D8" x="1" y="1" width="212" height="52"></rect>
        <g id="!BANG" transform="translate(10.500000, 4.200000)" fill-rule="nonzero">
            <path d="M14,32.9 L16.1,2.94 C16.1,1.68 15.2366667,1.05 13.51,1.05 L13.51,1.05 L2.59,1.05 C0.863333333,1.05 0,1.68 0,2.94 L0,2.94 L2.1,32.9 L14,32.9 Z M8.015,45.29 C11.1183333,45.29 13.195,44.8933333 14.245,44.1 C15.295,43.3066667 15.82,41.9066667 15.82,39.9 C15.82,37.8933333 15.295,36.47 14.245,35.63 C13.195,34.79 11.13,34.37 8.05,34.37 C4.97,34.37 2.89333333,34.79 1.82,35.63 C0.746666667,36.47 0.21,37.8933333 0.21,39.9 C0.21,41.9066667 0.723333333,43.3066667 1.75,44.1 C2.82333333,44.8933333 4.91166667,45.29 8.015,45.29 Z" id="!" fill="#770EBE"></path>
            <path d="M48.5633333,44.8 C52.4366666,44.8 55.3066666,43.7383333 57.1733333,41.615 C59.04,39.4916667 59.9733333,36.68 59.9733333,33.18 C59.9733333,26.46 57.15,22.61 51.5033333,21.63 L51.5033333,21.63 L51.5033333,21.21 C53.4166666,20.6966667 54.945,19.5883333 56.0883333,17.885 C57.2316666,16.1816667 57.8033333,13.7666667 57.8033333,10.64 C57.8033333,7.51333333 56.905,5.13333333 55.1083333,3.5 C53.3116666,1.86666667 50.3133333,1.05 46.1133333,1.05 L46.1133333,1.05 L23.4333333,1.05 L23.4333333,44.8 L48.5633333,44.8 Z M41.7733333,17.15 L37.4333333,17.15 L37.4333333,10.64 L41.8433333,10.64 C43.57,10.64 44.4333333,11.725 44.4333333,13.895 C44.4333333,16.065 43.5466666,17.15 41.7733333,17.15 L41.7733333,17.15 Z M42.8233333,34.51 L37.4333333,34.51 L37.4333333,27.37 L42.8933333,27.37 C44.8066666,27.37 45.7633333,28.56 45.7633333,30.94 C45.7633333,33.32 44.7833333,34.51 42.8233333,34.51 L42.8233333,34.51 Z M75.6366666,44.8 L77.2466666,37.87 L88.7966666,37.87 L90.4066666,44.8 L105.176667,44.8 L93.8366666,1.05 L72.2066666,1.05 L60.8666666,44.8 L75.6366666,44.8 Z M86.2066666,26.74 L79.7666666,26.74 L82.6366666,14.49 L83.4066666,14.49 L86.2066666,26.74 Z M122.17,44.8 L122.17,25.9 L122.45,25.9 C122.543333,27.6266667 122.776667,28.7466667 123.15,29.26 L123.15,29.26 L133.86,44.8 L147.02,44.8 L147.02,1.05 L133.02,1.05 L133.02,19.95 L132.74,19.95 C132.646667,18.2233333 132.413333,17.1033333 132.04,16.59 L132.04,16.59 L121.33,1.05 L108.17,1.05 L108.17,44.8 L122.17,44.8 Z M172.833333,45.85 C178.76,45.85 184.5,44.8 190.053333,42.7 L190.053333,42.7 L190.053333,19.32 L173.183333,19.32 L173.183333,30.03 L176.753333,30.03 L176.753333,31.92 C176.753333,33.18 176.368333,33.985 175.598333,34.335 C174.828333,34.685 173.603333,34.86 171.923333,34.86 L171.923333,34.86 L167.303333,34.86 L167.303333,15.05 C167.303333,13.65 167.921667,12.7166667 169.158333,12.25 C170.395,11.7833333 172.541667,11.55 175.598333,11.55 C178.655,11.55 182.073333,11.8766667 185.853333,12.53 L185.853333,12.53 L187.953333,1.82 C186.6,1.35333333 184.465,0.933333333 181.548333,0.56 C178.631667,0.186666667 176.263333,0 174.443333,0 C165.623333,0 159.673333,1.96 156.593333,5.88 C154.96,7.88666667 153.828333,10.2316667 153.198333,12.915 C152.568333,15.5983333 152.253333,18.935 152.253333,22.925 C152.253333,26.915 152.556667,30.2633333 153.163333,32.97 C153.77,35.6766667 154.843333,38.0333333 156.383333,40.04 C159.37,43.9133333 164.853333,45.85 172.833333,45.85 Z" id="BANG" fill="#000000"></path>
        </g>
    </g>
</svg>